<svg width="30" height="30" viewBox="0 0 30 30" fill="none" xmlns="http://www.w3.org/2000/svg">
<path d="M10.8999 4.00002C11.176 4.00002 11.3999 3.77617 11.3999 3.50004C11.3999 3.22391 11.176 3.00007 10.8999 3.00007C10.6237 3.00007 10.3999 3.22391 10.3999 3.50004C10.3999 3.77617 10.6237 4.00002 10.8999 4.00002Z" fill="black"/>
<path d="M27.9999 7.6L26.7999 6.4C25.9999 5.6 24.7999 5.6 23.9999 6.4L20.3999 10V7C20.3999 5.89997 19.4998 5 18.3999 5H17.3999C17.3999 3.89997 16.4998 3 15.3999 3H14.3999C14.3999 1.29997 12.9999 0 11.3999 0H10.3999C8.69988 0 7.3999 1.29997 7.3999 3H6.3999C5.29988 3 4.3999 3.89997 4.3999 5H3.3999C2.29988 5 1.3999 5.89997 1.3999 7V28C1.3999 29.1 2.29988 30 3.3999 30H18.3999C19.4999 30 20.3999 29.1 20.3999 28V18L27.9999 10.4C28.7999 9.6 28.7999 8.4 27.9999 7.6ZM5.3999 5C5.3999 4.4 5.7999 4 6.3999 4H8.3999V3C8.3999 1.89997 9.29988 1 10.3999 1H11.3999C12.4999 1 13.3999 1.89997 13.3999 3V4H15.3999C15.9999 4 16.3999 4.4 16.3999 5V6C16.3999 6.6 15.9999 7 15.3999 7H6.3999C5.7999 7 5.3999 6.6 5.3999 6V5ZM19.3999 28C19.3999 28.6 18.9999 29 18.3999 29H3.3999C2.89993 29 2.3999 28.6 2.3999 28V7C2.3999 6.4 2.7999 6 3.3999 6H4.3999C4.3999 7.10003 5.29988 8 6.3999 8H15.3999C16.4999 8 17.3999 7.10003 17.3999 6H18.3999C18.8999 6 19.3999 6.4 19.3999 7V11L9.3999 21L8.3999 26L13.3999 25L19.3999 19V28ZM10.2999 21.6L12.7999 24.1L9.69983 24.7L10.2999 21.6ZM13.5999 23.4L10.9999 20.8L22.2999 9.50003L24.8999 12.1L13.5999 23.4ZM27.2999 9.70003L25.5999 11.4L22.9999 8.8L24.6999 7.10003C25.0999 6.70003 25.6999 6.70003 26.0999 7.10003L27.2999 8.30003C27.6999 8.70003 27.6999 9.29997 27.2999 9.70003Z" fill="black"/>
</svg>
