<svg width="30" height="30" viewBox="0 0 30 30" fill="none" xmlns="http://www.w3.org/2000/svg">
<path d="M23.1431 9.81032V25.7957C23.1431 26.5402 22.2859 27.1534 21.2451 27.1534H6.52062C5.4798 27.1534 4.62266 26.5402 4.62266 25.7957V9.81032H23.1431ZM18.3369 11.584V25.3359H19.439V11.584H18.3369ZM13.3471 11.584V25.3359H14.4492V11.584H13.3471ZM8.35735 11.584V25.3359H9.45939V11.584H8.35735ZM9.58184 6.10959V4.9709C9.58184 4.24828 10.3778 3.67893 11.388 3.67893H16.4084C17.4186 3.67893 18.2145 4.24828 18.2145 4.9709V6.10959H23.7553C24.7961 6.10959 25.6533 6.72273 25.6533 7.46725V8.40886H2.14307V7.44536C2.14307 6.70083 3.00021 6.08769 4.04103 6.08769H9.58184V6.10959ZM11.388 4.55484C11.0818 4.55484 10.8369 4.73003 10.8369 4.94901V6.08769H16.99V4.94901C16.99 4.73003 16.7451 4.55484 16.439 4.55484H11.388Z" fill="black"/>
</svg>
